<svg xmlns="http://www.w3.org/2000/svg" xmlns:xlink="http://www.w3.org/1999/xlink" width="2000" zoomAndPan="magnify" viewBox="0 0 1500 1499.999933" height="2000" preserveAspectRatio="xMidYMid meet" version="1.0"><defs><clipPath id="0b60c36d0c"><path d="M 0 362.425781 L 1500 362.425781 L 1500 1137.726562 L 0 1137.726562 Z M 0 362.425781 " clip-rule="nonzero"/></clipPath></defs><g clip-path="url(#0b60c36d0c)"><path fill="#004aad" d="M 380.230469 576.988281 L 378.730469 783.203125 C 316.765625 793.253906 256.929688 803.082031 204.5625 811.839844 L 187.472656 646.433594 C 239.828125 627.210938 307.566406 602.847656 380.230469 576.988281 Z M 585.800781 503.898438 L 584.09375 750.933594 C 524.273438 760.132812 460.785156 770.167969 398.609375 780 L 380.863281 576.78125 C 448.1875 552.84375 519.351562 527.628906 585.800781 503.898438 Z M 235.125 896.683594 L 633.890625 854.792969 C 633.890625 854.792969 632.601562 881.507812 597.566406 890.058594 C 562.300781 898.609375 233.628906 904.796875 233.628906 904.796875 Z M 264.398438 949.683594 L 607.824219 920.402344 C 607.824219 920.402344 600.769531 945.824219 570.632812 953.316406 C 540.292969 960.78125 263.117188 957.796875 263.117188 957.796875 Z M 68.230469 872.527344 C 68.230469 872.527344 773 767.183594 795.230469 771.875 C 817.242188 777.003906 819.375 804.789062 819.375 804.789062 L 69.730469 878.300781 Z M 1080.089844 909.070312 C 1080.089844 909.070312 1142.921875 916.34375 1170.695312 927.027344 C 1183.726562 931.9375 1191.207031 941.765625 1195.691406 950.742188 C 1177.527344 947.113281 1118.132812 934.933594 1119.835938 939.636719 C 1121.542969 944.761719 1166.210938 965.496094 1187.359375 970.832031 C 1158.9375 971.464844 1096.972656 972.535156 1088.847656 967.847656 C 1078.164062 961.648438 1080.089844 909.070312 1080.089844 909.070312 Z M 1059.359375 1106.308594 C 1049.953125 1097.980469 1042.046875 1086.664062 1035.640625 1072.761719 C 963.832031 1071.910156 899.296875 1070.207031 858.476562 1069.132812 C 851.863281 1083.664062 843.738281 1095.847656 834.332031 1105.03125 C 913.402344 1105.25 989.046875 1105.675781 1059.359375 1106.308594 Z M 489.214844 1105.882812 C 548.84375 1105.457031 611.878906 1105.03125 677.0625 1105.03125 C 669.15625 1097.773438 661.675781 1088.585938 655.476562 1077.683594 L 655.257812 1077.246094 L 508.230469 1078.316406 C 503.101562 1089.867188 496.695312 1099.476562 489.214844 1105.882812 Z M 236.832031 1108.882812 C 284.484375 1108.027344 337.277344 1107.382812 394.117188 1106.75 C 386.429688 1100.328125 379.582031 1090.925781 374.46875 1079.390625 L 260.5625 1080.242188 C 254.152344 1092.851562 246.027344 1102.898438 236.832031 1108.882812 Z M 817.671875 1030.664062 C 825.574219 1030.664062 836.890625 1030.882812 850.570312 1031.105469 L 870.246094 1031.105469 L 870.246094 1031.53125 C 999.523438 1034.941406 1282.457031 1044.125 1390.164062 1025.109375 C 1407.472656 1022.125 1420.726562 1015.707031 1427.339844 1008.019531 C 1430.761719 1003.523438 1430.984375 985.363281 1429.277344 962.28125 C 1407.898438 964.851562 1388.238281 966.566406 1388.238281 966.566406 C 1405.769531 959.089844 1422.226562 950.539062 1423.285156 947.539062 C 1424.136719 944.96875 1407.898438 947.113281 1389.738281 950.316406 C 1395.71875 924.882812 1419.007812 916.34375 1441.667969 908.644531 C 1449.996094 959.089844 1458.976562 1025.332031 1449.996094 1036.4375 C 1444.238281 1043.699219 1425.855469 1055.453125 1398.496094 1059.949219 C 1358.320312 1066.5625 1298.914062 1070.207031 1233.304688 1071.910156 C 1226.472656 1086.871094 1217.496094 1099.257812 1207.238281 1108.027344 C 1404.914062 1111.023438 1534.195312 1115.933594 1534.195312 1121.28125 C 1534.195312 1130.246094 1181.597656 1137.726562 749.710938 1137.726562 C 317.617188 1137.726562 -34.773438 1130.246094 -34.773438 1121.28125 C -34.773438 1117.433594 33.1875 1113.789062 146.019531 1110.804688 C 135.117188 1105.03125 125.507812 1093.921875 118.457031 1079.390625 L 99 1078.539062 L 34.890625 1061.007812 L 32.761719 1050.324219 L 93.445312 1049.472656 L 93.445312 1005.667969 C 93.445312 1004.378906 93.445312 1003.523438 93.445312 1002.453125 C 93.445312 950.316406 116.089844 907.792969 161.832031 908 C 207.765625 908 230.203125 950.316406 230.203125 1002.453125 C 230.203125 1003.523438 230.203125 1004.804688 230.203125 1005.890625 L 230.203125 1047.769531 L 500.324219 1044.34375 L 627.691406 1042.847656 L 627.691406 1015.5 L 248.378906 1015.28125 L 248.378906 1001.394531 C 360.144531 996.472656 505.246094 990.285156 627.691406 985.789062 L 627.691406 981.734375 C 627.691406 805.859375 798.4375 808.210938 798.4375 985.363281 C 798.4375 1001.394531 796.71875 1016.777344 793.515625 1031.105469 L 817.671875 1031.105469 Z M 777.070312 1027.667969 C 766.386719 1059.511719 747.800781 1080.460938 726.640625 1080.460938 C 704.203125 1080.460938 684.542969 1056.320312 674.492188 1020.613281 C 687.746094 1043.699219 706.761719 1058.230469 727.917969 1058.230469 C 746.933594 1058.230469 764.023438 1046.695312 777.070312 1027.667969 Z M 727.066406 912.070312 C 746.507812 912.070312 762.113281 935.152344 762.746094 963.777344 C 755.910156 948.394531 742.449219 937.917969 727.066406 937.917969 C 711.679688 937.917969 698.207031 948.394531 691.375 963.777344 C 692.019531 935.152344 707.613281 912.070312 727.066406 912.070312 Z M 724.921875 1010.796875 C 732.609375 1010.796875 738.601562 999.261719 738.601562 985.15625 C 738.601562 971.039062 732.609375 959.515625 724.921875 959.515625 C 717.441406 959.515625 711.253906 971.039062 711.253906 985.15625 C 711.253906 999.261719 717.441406 1010.796875 724.921875 1010.796875 Z M 163.109375 962.925781 C 176.363281 962.925781 187.265625 979.382812 187.691406 1000.320312 C 182.992188 988.992188 173.585938 981.308594 163.109375 981.308594 C 152.414062 981.308594 143.230469 988.992188 138.542969 1000.320312 C 138.96875 979.382812 149.652344 962.925781 163.109375 962.925781 Z M 159.273438 920.402344 C 185.34375 920.402344 206.914062 953.519531 210.765625 996.898438 C 201.785156 965.703125 182.140625 944.335938 159.273438 944.335938 C 136.179688 944.335938 116.089844 966.566406 107.332031 998.191406 C 110.757812 954.375 132.546875 920.402344 159.273438 920.402344 Z M 161.613281 1034.296875 C 166.960938 1034.296875 171.015625 1025.964844 171.015625 1015.707031 C 171.015625 1005.449219 166.960938 997.117188 161.613281 997.117188 C 156.484375 997.117188 152.222656 1005.449219 152.222656 1015.707031 C 152.222656 1025.964844 156.484375 1034.296875 161.613281 1034.296875 Z M 197.304688 1046.695312 C 190.042969 1069.78125 177.4375 1084.945312 162.90625 1084.945312 C 147.300781 1084.945312 133.839844 1067.429688 126.785156 1041.566406 C 135.972656 1058.230469 149.003906 1068.707031 163.757812 1068.707031 C 176.570312 1068.707031 188.546875 1060.375 197.304688 1046.695312 Z M 721.292969 864.621094 C 751.855469 864.621094 777.070312 901.167969 781.332031 948.820312 C 770.871094 914.625 748.003906 890.910156 721.5 890.910156 C 694.359375 890.910156 671.289062 915.480469 661.25 950.316406 C 665.085938 902.019531 690.523438 864.621094 721.292969 864.621094 Z M 20.359375 813.121094 L 18.449219 701.578125 C 18.652344 671.441406 39.8125 648.148438 71.863281 635.542969 C 216.964844 578.058594 759.96875 384.65625 912.976562 362.4375 C 962.761719 468 1010.425781 622.933594 1055.300781 831.28125 C 1045.691406 693.453125 1020.242188 562.027344 983.285156 435.734375 C 1001.449219 437.660156 1024.105469 440.65625 1042.472656 443.847656 C 1062.136719 475.054688 1090.980469 569.933594 1095.902344 594.722656 C 1096.972656 600.714844 1150.179688 605.417969 1146.125 582.542969 C 1145.6875 579.117188 1144.40625 573.5625 1142.703125 566.304688 L 1142.921875 566.304688 C 1142.921875 566.304688 1142.277344 563.527344 1140.996094 558.605469 C 1136.925781 542.367188 1130.945312 521.003906 1123.675781 501.136719 C 1121.96875 497.066406 1120.472656 492.996094 1118.765625 489.160156 C 1112.785156 473.347656 1105.9375 457.964844 1098.679688 446.636719 C 1096.972656 443.640625 1095.902344 441.933594 1095.902344 441.933594 L 1095.253906 441.714844 C 1090.554688 435.515625 1085.863281 431.03125 1081.148438 428.898438 C 1061.707031 420.347656 1006.796875 413.296875 975.585938 410.09375 C 971.105469 394.914062 966.402344 379.957031 961.480469 365.011719 C 1058.503906 372.050781 1143.980469 388.289062 1245.0625 412.015625 C 1260.445312 421.847656 1275.199219 435.515625 1289.082031 451.972656 C 1312.59375 455.601562 1385.035156 467.574219 1402.125 479.109375 C 1404.914062 481.035156 1407.898438 484.238281 1410.882812 488.308594 L 1411.53125 488.515625 C 1411.53125 488.515625 1428.414062 511.585938 1441.445312 537.460938 C 1454.917969 564.804688 1464.53125 595.148438 1467.085938 604.761719 C 1472.007812 623.566406 1418.582031 619.730469 1417.304688 614.808594 C 1411.308594 594.089844 1378.617188 514.800781 1357.6875 489.585938 C 1342.71875 486.175781 1325.203125 482.960938 1310.242188 480.402344 C 1344.007812 530.613281 1372.648438 598.984375 1394.867188 675.714844 C 1347.417969 684.914062 1298.269531 692.597656 1246.558594 703.0625 C 1283.308594 701.785156 1340.378906 698.152344 1399.140625 691.527344 C 1402.125 702.429688 1405.121094 713.332031 1407.691406 724.441406 C 1346.992188 740.265625 1283.308594 751.789062 1215.789062 763.542969 C 1261.945312 763.117188 1339.941406 760.132812 1414.101562 751.582031 C 1415.597656 758.414062 1416.878906 765.246094 1418.363281 771.875 C 1342.292969 793.460938 1263.015625 805.859375 1176.675781 818.25 C 1233.304688 819.539062 1338.234375 817.617188 1424.988281 806.285156 C 1425.855469 811.839844 1426.707031 817.1875 1427.558594 822.742188 C 1339.085938 849.238281 1247.203125 858.847656 1145.480469 871.675781 C 1210.867188 874.453125 1341.4375 875.523438 1433.539062 860.992188 C 1434.394531 868.253906 1435.464844 875.730469 1436.332031 883.210938 C 1345.070312 902.238281 1214.511719 908.21875 1076.019531 886.425781 C 1069.1875 885.355469 1062.78125 883.636719 1056.800781 881.507812 L 1060.429688 1002.246094 L 1031.160156 867.621094 C 970.460938 822.523438 954.855469 716.316406 883.691406 716.316406 L 895.238281 987.496094 L 1016.1875 1010.796875 L 870.671875 1008.652344 L 860.402344 687.679688 L 860.621094 687.679688 L 841.386719 433.382812 L 839.460938 716.960938 C 790.75 721.019531 703.761719 732.980469 604.195312 747.9375 L 585.800781 503.898438 C 737.957031 450.046875 865.53125 405.390625 865.53125 405.390625 L 105.203125 648.796875 C 48.351562 660.113281 48.351562 708.628906 45.585938 754.785156 C 45.585938 754.785156 57.121094 703.0625 85.113281 685.546875 C 88.320312 683.195312 127.214844 668.445312 185.976562 646.859375 L 184.695312 815.046875 C 119.734375 825.949219 68.230469 834.707031 41.3125 839.199219 L 21.636719 1003.746094 L 20.359375 813.121094 " fill-opacity="1" fill-rule="evenodd"/></g></svg>